<?xml version="1.0" encoding="utf-8"?>
<!-- Generator: Adobe Illustrator 28.2.0, SVG Export Plug-In . SVG Version: 6.00 Build 0)  -->
<svg version="1.1" id="Layer_1" xmlns="http://www.w3.org/2000/svg" xmlns:xlink="http://www.w3.org/1999/xlink" x="0px" y="0px"
	 viewBox="0 0 151.03 59.25" style="enable-background:new 0 0 151.03 59.25;" xml:space="preserve">
<g>
	<path d="M39.23,38.34c1.87,3.78,3.55,7.15,5.21,10.53c2.83,5.76-0.13,10.32-6.48,10.05c-10.33-0.44-20.66-0.84-30.99-1.26
		c-0.52-0.02-1.03-0.03-1.55-0.07C2.15,57.29-0.05,54.94,0,51.82c0.05-3.1,2.34-5.49,5.64-5.53c6.55-0.09,13.1-0.03,19.65-0.04
		c0.91,0,1.82,0,3.21,0c-2.1-3.79-3.75-7.3-5.88-10.49c-4.38-6.56-0.06-14.16,7.21-14.71c11.31-0.86,22.16,0.14,32.64,4.59
		c3.69,1.56,5.41,4.34,5.7,8.19c0.17,2.23,0.26,4.47,0.46,6.7c0.34,3.67,2.19,6.41,5.61,7.72c3.2,1.23,6.54,2.09,9.86,2.99
		c2.77,0.75,4.1,2.28,3.76,4.63c-0.32,2.23-2.01,3.65-4.73,3.23c-4.65-0.72-9.37-1.46-13.84-2.88c-5-1.59-8.42-5.34-10.2-10.29
		c-0.69-1.93-1.74-2.86-3.65-3.4c-4.38-1.23-8.69-2.69-13.05-3.98C41.54,38.31,40.58,38.42,39.23,38.34z"/>
	<path d="M81.9,47.88c3.13-5.08,6.37-10.34,9.72-15.78c1.94,3.38,3.84,6.45,5.44,9.66c0.38,0.77-0.24,2.03-0.44,3.38
		c1.94,0.15,4,0.32,6.6,0.53c-1.39-1.88-2.59-3.31-3.57-4.87c-2.37-3.8-4.64-7.66-6.92-11.52c-1.01-1.71-0.97-3.41,0.83-4.51
		c1.76-1.07,3.22-0.36,4.47,1.2c3.65,4.57,7.36,9.09,11.09,13.59c0.58,0.7,1.4,1.21,2.28,1.95c0.64-2.63,1.81-4.39,4.44-4.65
		c2.66-0.26,3.97,1.42,5.3,3.39c1.77,2.64,3.75,5.14,5.75,7.62c1.98,2.46,2.49,5.19,1.1,7.63c-1.48,2.6-3.8,3.66-6.75,3.28
		c-4.36-0.55-8.7-1.28-13.07-1.68c-6.47-0.59-12.86,0.02-19.53,2.14c1.26-2.9,1.91-5.63-0.23-7.58
		C86.69,50.08,84.28,49.21,81.9,47.88z"/>
	<path d="M71.27,37.63c0.02-5.93,3.93-11.39,9.7-12.82c1.84-0.46,4.18-0.21,5.92,0.56c3.47,1.53,3.67,2.91,1.67,6.08
		c-2.47,3.92-4.94,7.84-7.42,11.76c-1.69,2.68-4.3,3.15-6.91,1.21C71.96,42.74,71.19,40.36,71.27,37.63z"/>
	<path d="M139.24,41.67c2.67,0.87,5.46,1.48,7.98,2.68c3.08,1.47,4.22,4.27,3.68,7.54c-0.55,3.27-2.52,5.33-5.98,5.9
		c-3.9,0.64-7.55-0.03-10.64-2.71c-3.01-2.61-4.25-6.06-3.19-8.93C132.06,43.52,134.93,42.08,139.24,41.67z"/>
	<path d="M93.11,22.63c-2.24-5.7-4.52-11.26-6.59-16.9c-0.83-2.26,0.38-4.53,2.4-5.36c2.21-0.91,4.61-0.14,5.67,2.17
		c3.56,7.74,7.06,15.5,10.4,23.34c0.52,1.21,0.07,2.83,0.07,4.83C100.61,27.56,99.79,20.89,93.11,22.63z"/>
</g>
</svg>
