<?xml version="1.0" encoding="utf-8"?>
<!-- Generator: Adobe Illustrator 28.2.0, SVG Export Plug-In . SVG Version: 6.00 Build 0)  -->
<svg version="1.1" id="Layer_1" xmlns="http://www.w3.org/2000/svg" xmlns:xlink="http://www.w3.org/1999/xlink" x="0px" y="0px"
	 viewBox="0 0 134.32 88.9" style="enable-background:new 0 0 134.32 88.9;" xml:space="preserve">
<g>
	<path d="M134.32,56.26c-0.91,2.73-2.34,5.06-4.95,6.51c-5.01,2.79-11.32,0.83-13.83-4.33c-2.57-5.27-0.22-11.31,5.28-13.56
		c5.27-2.17,11.2,0.53,13.08,5.95c0.14,0.41,0.28,0.83,0.42,1.24C134.32,53.46,134.32,54.86,134.32,56.26z"/>
	<path d="M0,69.38c1.14-2.89,3.31-4.06,6.37-4.02c5.15,0.07,10.31,0.02,15.46,0.02c0.46,0,0.92,0,1.61,0
		c-0.57,0.77-1.19,0.9-1.72,1.14c-4.74,2.13-9.48,4.25-14.24,6.34c-1.38,0.61-2.67,1.33-3.67,2.46c-0.5,0.56-0.92,0.48-1.48,0.14
		C1.2,74.75,0.62,73.63,0,72.52C0,71.47,0,70.42,0,69.38z"/>
	<path d="M66.79,69.55c-4.96-3.26-9.93-6.53-14.89-9.79c-0.33-0.22-0.65-0.45-0.99-0.65c-0.75-0.44-0.84-0.83,0.04-1.23
		c0.83-0.38,1.65-0.8,2.48-1.2c10.95-5.28,21.94-10.46,32.82-15.86c6.39-3.17,14.07,0.72,14.75,8.64c0.13,1.55-0.27,3.04-0.9,4.45
		c-0.59,1.33-1.96,1.49-3.11,1.97c-0.4,0.17-0.51-0.22-0.52-0.54c-0.02-0.52,0-1.05-0.16-1.6c-0.4,2.04-0.81,4.08-1.21,6.14
		c0.68,0.16,1.09-0.23,1.54-0.44c2.97-1.38,5.92-2.81,8.9-4.18c2.6-1.2,5.32-0.29,6.47,2.1c1.17,2.43,0.24,5.13-2.36,6.38
		c-6.3,3.03-12.64,5.99-18.98,8.94c-1.76,0.82-3.51,0.68-5.04-0.59c-1.52-1.26-2.01-2.88-1.62-4.82c1.01-5.05,1.98-10.11,2.97-15.16
		c-0.18-0.15-0.23,0.02-0.26,0.11c-1.91,4.98-3.89,9.93-5.71,14.94c-1.5,4.14,0.97,8.42,5.26,9.37c1.45,0.32,2.89,0.16,4.23-0.47
		c6.93-3.25,13.84-6.51,20.76-9.78c0.88-0.41,1.64-1.02,2.27-1.75c0.72-0.85,1-0.5,1.22,0.37c0.26,1.03,0.29,2.08,0.35,3.12
		c0.02,0.46,0.1,0.85,0.43,1.19c1.61,1.59,3.22,3.19,4.99,4.94c0.31-1.93,0.6-3.71,0.88-5.5c0.34-2.22,0.56-1.97,2.15-1.77
		c2.38,0.3,4.68-0.31,6.84-1.39c0.29-0.14,0.59-0.51,0.94-0.19c0.26,0.23,0.07,0.57,0.03,0.87c-0.93,6-1.84,12-2.81,17.99
		c-0.59,3.68-3.45,5.58-6.5,4.42c-0.8-0.3-1.41-0.86-2-1.45c-3.48-3.5-6.97-7-10.44-10.52c-0.3-0.3-0.48-0.71-0.84-0.94
		c0.8,1.99,0.8,2-1.29,2.51c-9.33,2.32-18.66,4.6-27.98,6.96c-3.77,0.96-7.32,0.57-10.82-1.13c-7.39-3.59-14.83-7.08-22.21-10.68
		c-1.1-0.54-1.97-0.51-3.06-0.02c-9.96,4.48-19.95,8.92-29.93,13.36c-1.21,0.54-2.43,0.94-3.8,0.7c-2.89-0.51-4.89-2.49-5.24-5.27
		C4.11,79.53,5.56,77,8.09,75.86c5.42-2.44,10.85-4.86,16.28-7.28c5.91-2.63,11.84-5.22,17.72-7.9c2.16-0.98,4.17-0.91,6.28,0.15
		c5.67,2.84,11.37,5.6,17.06,8.38c0.42,0.2,0.85,0.38,1.27,0.57C66.73,69.71,66.76,69.63,66.79,69.55z"/>
	<path d="M115.35,30c0.3,5.24-4.08,10.03-9.43,10.3c-5.34,0.28-10.16-3.98-10.48-9.26c-0.35-5.69,3.92-10.55,9.69-10.68
		C110.75,20.23,115.09,24.47,115.35,30z"/>
	<path d="M43.89,56.67c-3.59,1.59-7.17,3.19-10.77,4.75c-1.92,0.83-3.96,0.36-5.95,0.34c-0.29,0-0.61-0.32-0.86-0.55
		c-4.14-3.69-8.28-7.38-12.4-11.09c-2.59-2.34-2.84-5.62-0.67-8.03c2.09-2.33,5.4-2.43,7.97-0.16c4.45,3.94,8.91,7.86,13.24,11.91
		c1.47,1.38,3.03,2.05,4.99,2.11c1.5,0.05,3,0.31,4.5,0.47C43.93,56.51,43.91,56.59,43.89,56.67z"/>
	<path d="M62.59,0.03c1.7,0.01,2.98,0.44,3.98,1.43c0.64,0.63,1.04,0.62,1.71,0.01c1.66-1.51,3.65-1.86,5.73-1.06
		c2.04,0.79,3.2,2.35,3.53,4.52c0.2,1.33-0.24,2.51-0.93,3.6c-2.04,3.22-5.05,5.4-8.18,7.42c-0.67,0.43-1.45,0.39-2.12-0.04
		c-2.87-1.86-5.66-3.82-7.65-6.67c-2.56-3.66-1.22-7.95,2.79-9.02C61.92,0.1,62.4,0.06,62.59,0.03z"/>
	<path d="M67.86,43.07c0.08-1.87,0.91-3.25,2.46-4.13c1.58-0.88,3.21-0.82,4.73,0.15c0.99,0.63,2.3,1.37,2.33,2.47
		c0.03,0.89-1.53,1.04-2.39,1.49c-1.47,0.76-3,1.42-4.5,2.13c-1.74,0.82-2.16,0.62-2.54-1.26C67.9,43.62,67.89,43.31,67.86,43.07z"
		/>
</g>
</svg>
